<svg id="Capa_1" enable-background="new 0 0 512.607 512.607" height="512" viewBox="0 0 512.607 512.607" width="512" xmlns="http://www.w3.org/2000/svg"><g id="XMLID_157_"><path id="XMLID_670_" d="m-10.97 434.911h147.334v30h-147.334z" fill="#bdbdd2" transform="matrix(.707 -.707 .707 .707 -299.771 176.109)"/><path id="XMLID_598_" d="m-5.667 447.714h147.334v15h-147.334z" fill="#ababc5" transform="matrix(.707 -.707 .707 .707 -301.968 181.412)"/><path id="XMLID_707_" d="m312.466 103.625-226.937 226.938 16.569 79.946 79.947 16.57 226.937-226.937z" fill="#75e2f8"/><path id="XMLID_599_" d="m102.098 410.509 79.947 16.57 226.937-226.937-48.258-48.259z" fill="#2ad8f6"/><g fill="#00c0f1"><path id="XMLID_703_" d="m199.599 216.378h29.999v71.846h-29.999z" transform="matrix(.707 -.707 .707 .707 -115.556 225.719)"/><path id="XMLID_689_" d="m246.837 165.818h29.999v55.851h-29.999z" transform="matrix(.707 -.707 .707 .707 -60.319 241.816)"/><path id="XMLID_164_" d="m141.17 271.485h29.999v55.851h-29.999z" transform="matrix(.707 -.707 .707 .707 -165.95 198.048)"/></g><path id="XMLID_677_" d="m389.021 77.586h62v30h-62z" fill="#bdbdd2" transform="matrix(.707 -.707 .707 .707 57.553 324.118)"/><path id="XMLID_604_" d="m394.325 90.389h62v15h-62z" fill="#ababc5" transform="matrix(.707 -.707 .707 .707 55.357 329.421)"/><path id="XMLID_671_" d="m426.942-14.271h30v169.873h-30z" fill="#0065a3" transform="matrix(.707 -.707 .707 .707 79.474 333.198)"/><path id="XMLID_685_" d="m349.322 65.498h69.575v126h-69.575z" fill="#2ad8f6" transform="matrix(.707 -.707 .707 .707 21.641 309.243)"/><path id="XMLID_525_" d="m371.596 119.272h69.575v63h-69.575z" fill="#00c0f1" transform="matrix(.707 -.707 .707 .707 12.415 331.517)"/><path id="XMLID_686_" d="m345.117 67.554h30v169.873h-30z" fill="#00c0f1" transform="matrix(.707 -.707 .707 .707 -2.351 299.305)"/><path id="XMLID_597_" d="m345.117 67.554h30v169.873h-30z" fill="#00c0f1" transform="matrix(.707 -.707 .707 .707 -2.351 299.305)"/><path id="XMLID_588_" d="m456.972 58.227h30v84.936h-30z" fill="#00317e" transform="matrix(.707 -.707 .707 .707 67.035 363.227)"/><path id="XMLID_654_" d="m375.147 140.052h30v84.936h-30z" fill="#009ae4" transform="matrix(.707 -.707 .707 .707 -14.79 329.334)"/></g></svg>