<?xml version="1.0" standalone="no"?><svg xmlns="http://www.w3.org/2000/svg" viewBox="0 0 1440 320"><path fill="#0099ff" fill-opacity="1" d="M0,160L30,138.7C60,117,120,75,180,64C240,53,300,75,360,85.3C420,96,480,96,540,85.3C600,75,660,53,720,48C780,43,840,53,900,85.3C960,117,1020,171,1080,202.7C1140,235,1200,245,1260,245.3C1320,245,1380,235,1410,229.3L1440,224L1440,0L1410,0C1380,0,1320,0,1260,0C1200,0,1140,0,1080,0C1020,0,960,0,900,0C840,0,780,0,720,0C660,0,600,0,540,0C480,0,420,0,360,0C300,0,240,0,180,0C120,0,60,0,30,0L0,0Z"></path></svg>